<?xml version="1.0" encoding="utf-8"?>
<svg version="1.1" id="Capa_1" x="0px" y="0px" viewBox="0 0 512 512" style="enable-background:new 0 0 512 512;" xmlns="http://www.w3.org/2000/svg">
  <path style="fill: rgb(66, 141, 255);" d="M 503.467 379.733 L 324.267 379.733 C 319.554 379.733 315.734 375.912 315.734 371.2 C 315.734 366.488 319.555 362.667 324.267 362.667 L 494.934 362.667 L 494.934 55.467 L 17.067 55.467 L 17.067 362.667 L 187.734 362.667 C 192.447 362.667 196.267 366.487 196.267 371.2 C 196.267 375.913 192.446 379.733 187.734 379.733 L 8.533 379.733 C 6.269 379.734 4.098 378.836 2.498 377.235 C 0.897 375.635 -0.001 373.464 0 371.2 L 0 46.933 C -0.001 44.669 0.897 42.498 2.498 40.898 C 4.099 39.298 6.27 38.399 8.533 38.4 L 503.466 38.4 C 505.73 38.399 507.901 39.297 509.501 40.898 C 511.102 42.499 512 44.67 511.999 46.933 L 511.999 371.2 C 512 373.464 511.102 375.635 509.501 377.235 C 507.901 378.836 505.73 379.735 503.467 379.733 L 503.467 379.733 Z">
    <title>screen</title>
  </path>
  <g style="" transform="matrix(1.102645, 0, 0, 1.102645, 90, -6.394405)">
    <title>Left</title>
    <g transform="matrix(1, 0, 0, 1, -83.482513, 27.284025)">
      <title>Code</title>
      <rect x="38.137" y="90.972" width="48.311" height="11" style="fill: rgb(66, 141, 255);" rx="5.5" ry="5.5"/>
      <rect x="99.138" y="90.972" width="30.492" height="11" style="fill: rgb(66, 141, 255);" rx="5.5" ry="5.5"/>
      <rect x="186.097" y="134.5" width="33.422" height="11" style="fill: rgb(66, 141, 255);" rx="5.5" ry="5.5"/>
      <rect x="130.638" y="134.521" width="42.799" height="11" style="fill: rgb(66, 141, 255);" rx="5.5" ry="5.5"/>
      <rect x="119.401" y="112.863" width="67.991" height="11" style="fill: rgb(66, 141, 255);" rx="5.5" ry="5.5"/>
      <rect x="70.118" width="36.613" height="11" style="fill: rgb(66, 141, 255);" y="112.863" rx="5.5" ry="5.5"/>
      <rect x="94.471" y="134.735" width="23.801" height="11" style="fill: rgb(66, 141, 255);" rx="5.5" ry="5.5"/>
      <rect x="80.701" y="160.648" width="83.813" height="10.845" style="fill: rgb(66, 141, 255);" rx="5.423" ry="5.423"/>
      <rect x="67.811" y="182.558" width="83.813" height="10.845" style="fill: rgb(66, 141, 255);" rx="5.423" ry="5.423"/>
      <rect x="163.95" y="182.558" width="25.42" height="10.845" style="fill: rgb(66, 141, 255);" rx="5.423" ry="5.423"/>
      <rect x="59.97" y="97.446" width="0.148" height="0.148" style="fill: rgb(66, 141, 255);"/>
      <rect x="38.137" y="208.478" width="48.311" height="11" style="fill: rgb(66, 141, 255);" rx="5.5" ry="5.5"/>
      <rect x="99.138" y="208.478" width="30.492" height="11" style="fill: rgb(66, 141, 255);" rx="5.5" ry="5.5"/>
      <rect x="186.097" y="252.006" width="33.422" height="11" style="fill: rgb(66, 141, 255);" rx="5.5" ry="5.5"/>
      <rect x="130.638" y="252.027" width="42.799" height="11" style="fill: rgb(66, 141, 255);" rx="5.5" ry="5.5"/>
      <rect x="119.401" y="230.369" width="67.991" height="11" style="fill: rgb(66, 141, 255);" rx="5.5" ry="5.5"/>
      <rect x="70.118" width="36.613" height="11" style="fill: rgb(66, 141, 255);" y="230.369" rx="5.5" ry="5.5"/>
      <rect x="94.471" y="252.241" width="23.801" height="11" style="fill: rgb(66, 141, 255);" rx="5.5" ry="5.5"/>
      <rect x="59.97" y="214.952" width="0.148" height="0.148" style="fill: rgb(66, 141, 255);"/>
    </g>
  </g>
  <g transform="matrix(1.101297, 0, 0, 1.101297, -33.841068, -5.159013)">
    <title>Right</title>
    <path style="stroke: rgb(0, 0, 0); stroke-width: 0px; fill: rgb(66, 141, 255);" d="M 407.223 179.857 C 407.223 179.897 390.606 192.966 390.606 192.966 C 390.606 192.966 398.033 199.626 398.096 199.677 C 398.029 199.666 388.98 209.051 388.98 209.051 L 346.045 170.615 L 288.699 216.132 L 288.699 228.307 L 448.299 228.307 L 448.299 216.953 C 443.085 212.239 407.223 179.82 407.223 179.857 Z M 346.704 153.633 L 380.918 184.237 L 407.794 162.91 L 448.299 199.138 L 448.299 128.307 L 288.699 128.307 L 288.699 199.678 C 293.111 196.178 346.702 153.66 346.704 153.633 Z M 346.704 153.633 C 346.704 153.633 346.704 153.633 346.704 153.633 Z M 398.096 199.677 C 398.096 199.677 398.096 199.677 398.096 199.677 C 398.096 199.677 398.096 199.677 398.096 199.677 Z M 277.709 117.279 L 459.313 117.279 L 459.313 239.279 L 277.709 239.279 Z">
      <title>Image</title>
    </path>
    <rect x="277.709" y="255.306" width="60" height="11" style="fill: rgb(66, 141, 255);" rx="5.5" ry="5.5">
      <title>text</title>
    </rect>
    <rect x="277.709" y="278.065" width="60" height="11" style="fill: rgb(66, 141, 255);" rx="5.5" ry="5.5">
      <title>text</title>
    </rect>
    <rect x="355.157" y="255.306" width="104.156" height="11" style="fill: rgb(66, 141, 255);" rx="5.5" ry="5.5">
      <title>text</title>
    </rect>
    <rect x="355.157" y="278.106" width="104.156" height="11" style="fill: rgb(66, 141, 255);" rx="5.5" ry="5.5">
      <title>text</title>
    </rect>
  </g>
  <g style="" transform="matrix(1, 0, 0, 1, 0.170169, 0.170169)">
    <title>Leg</title>
    <path d="M 170.667 465.067 L 233.748 364.137 L 278.252 364.137 L 341.333 465.067 Z" style="fill: rgb(164, 194, 247);"/>
    <path style="fill: rgb(227, 231, 242);" d="M 315.733 465.066 L 172.471 465.066 C 183.643 438.208 198.395 412.985 216.327 390.081 C 219.984 385.031 223.777 380.291 227.368 375.563 L 259.794 375.563 Z"/>
    <path style="fill: rgb(66, 141, 255); pointer-events: none;" d="M 341.333 473.6 L 170.667 473.6 C 167.564 473.601 164.705 471.917 163.202 469.203 C 161.698 466.489 161.787 463.172 163.434 460.542 L 224.618 362.648 L 287.382 362.648 L 348.566 460.542 C 350.213 463.172 350.301 466.489 348.798 469.203 C 347.295 471.917 344.436 473.601 341.333 473.6 Z M 186.067 456.533 L 325.934 456.533 L 277.978 379.799 L 234.051 379.754 Z"/>
  </g>
  <circle style="fill: rgb(66, 141, 255);" cx="41.48" cy="78.507" r="13.254"/>
  <circle style="fill: rgb(66, 141, 255);" cx="75.903" cy="78.507" r="13.254"/>
  <circle style="fill: rgb(66, 141, 255);" cx="110.419" cy="78.536" r="13.254"/>
</svg>